<mxfile host="app.diagrams.net" modified="2024-01-26T00:16:31.495Z" agent="Mozilla/5.0 (Windows NT 10.0; Win64; x64) AppleWebKit/537.36 (KHTML, like Gecko) Chrome/121.0.0.0 Safari/537.36" etag="Drux78YckMBwT-pvU5IC" version="21.6.5" type="google">
  <diagram name="Page-1" id="ZYM7O_iwEEqTYyQ5M_A7">
    <mxGraphModel grid="1" page="1" gridSize="10" guides="1" tooltips="1" connect="1" arrows="1" fold="1" pageScale="1" pageWidth="5000" pageHeight="5000" math="0" shadow="0">
      <root>
        <mxCell id="0" />
        <mxCell id="1" parent="0" />
        <mxCell id="--fqdnwhhY8KtqHlQ7Be-12" value="" style="swimlane;startSize=0;fillColor=#b1ddf0;strokeWidth=4;strokeColor=#10739e;" vertex="1" parent="1">
          <mxGeometry x="2620" y="260" width="1110" height="2110" as="geometry" />
        </mxCell>
        <mxCell id="--fqdnwhhY8KtqHlQ7Be-13" value="&lt;font style=&quot;font-size: 28px;&quot;&gt;&lt;b&gt;CADBUSI-Anonymize&lt;/b&gt;&lt;/font&gt;" style="text;html=1;align=center;verticalAlign=middle;resizable=0;points=[];autosize=1;strokeColor=none;fillColor=none;" vertex="1" parent="--fqdnwhhY8KtqHlQ7Be-12">
          <mxGeometry x="15" y="10" width="310" height="50" as="geometry" />
        </mxCell>
        <mxCell id="--fqdnwhhY8KtqHlQ7Be-22" style="edgeStyle=orthogonalEdgeStyle;rounded=0;orthogonalLoop=1;jettySize=auto;html=1;entryX=0;entryY=0.5;entryDx=0;entryDy=0;strokeWidth=4;fillColor=#fad9d5;strokeColor=#ae4132;" edge="1" parent="--fqdnwhhY8KtqHlQ7Be-12" source="--fqdnwhhY8KtqHlQ7Be-8" target="--fqdnwhhY8KtqHlQ7Be-16">
          <mxGeometry relative="1" as="geometry" />
        </mxCell>
        <mxCell id="--fqdnwhhY8KtqHlQ7Be-23" style="edgeStyle=orthogonalEdgeStyle;rounded=0;orthogonalLoop=1;jettySize=auto;html=1;entryX=0;entryY=0.5;entryDx=0;entryDy=0;strokeWidth=4;fillColor=#fad9d5;strokeColor=#ae4132;" edge="1" parent="--fqdnwhhY8KtqHlQ7Be-12" source="--fqdnwhhY8KtqHlQ7Be-8" target="--fqdnwhhY8KtqHlQ7Be-20">
          <mxGeometry relative="1" as="geometry" />
        </mxCell>
        <mxCell id="--fqdnwhhY8KtqHlQ7Be-25" style="edgeStyle=orthogonalEdgeStyle;rounded=0;orthogonalLoop=1;jettySize=auto;html=1;entryX=0;entryY=0.5;entryDx=0;entryDy=0;strokeWidth=4;fillColor=#fad9d5;strokeColor=#ae4132;" edge="1" parent="--fqdnwhhY8KtqHlQ7Be-12" source="--fqdnwhhY8KtqHlQ7Be-8" target="--fqdnwhhY8KtqHlQ7Be-24">
          <mxGeometry relative="1" as="geometry" />
        </mxCell>
        <mxCell id="--fqdnwhhY8KtqHlQ7Be-8" value="&lt;font style=&quot;font-size: 16px;&quot;&gt;prepare_raw_data.py&lt;/font&gt;" style="shape=step;perimeter=stepPerimeter;whiteSpace=wrap;html=1;fixedSize=1;direction=south;fillColor=#fad9d5;strokeColor=#ae4132;" vertex="1" parent="--fqdnwhhY8KtqHlQ7Be-12">
          <mxGeometry x="220" y="110" width="240" height="120" as="geometry" />
        </mxCell>
        <mxCell id="--fqdnwhhY8KtqHlQ7Be-26" style="edgeStyle=orthogonalEdgeStyle;rounded=0;orthogonalLoop=1;jettySize=auto;html=1;entryX=0.5;entryY=1;entryDx=0;entryDy=0;exitX=1;exitY=0.5;exitDx=0;exitDy=0;strokeWidth=4;" edge="1" parent="--fqdnwhhY8KtqHlQ7Be-12" source="--fqdnwhhY8KtqHlQ7Be-20" target="--fqdnwhhY8KtqHlQ7Be-14">
          <mxGeometry relative="1" as="geometry" />
        </mxCell>
        <mxCell id="--fqdnwhhY8KtqHlQ7Be-14" value="&lt;font style=&quot;font-size: 16px;&quot;&gt;anonymize_data.py&lt;/font&gt;" style="shape=step;perimeter=stepPerimeter;whiteSpace=wrap;html=1;fixedSize=1;direction=south;fillColor=#fad9d5;strokeColor=#ae4132;" vertex="1" parent="--fqdnwhhY8KtqHlQ7Be-12">
          <mxGeometry x="740" y="110" width="240" height="120" as="geometry" />
        </mxCell>
        <mxCell id="--fqdnwhhY8KtqHlQ7Be-16" value="&lt;span style=&quot;font-size: 16px;&quot;&gt;filtered_data.csv&lt;/span&gt;&lt;br style=&quot;border-color: var(--border-color);&quot;&gt;(Used for debugging)" style="rounded=1;whiteSpace=wrap;html=1;fillColor=#0050ef;fontColor=#ffffff;strokeColor=#001DBC;" vertex="1" parent="--fqdnwhhY8KtqHlQ7Be-12">
          <mxGeometry x="420" y="260" width="240" height="80" as="geometry" />
        </mxCell>
        <mxCell id="--fqdnwhhY8KtqHlQ7Be-20" value="&lt;font style=&quot;font-size: 16px;&quot;&gt;master_anon_map.csv&lt;/font&gt;&lt;br style=&quot;border-color: var(--border-color);&quot;&gt;(anonymization map for accessions)" style="rounded=1;whiteSpace=wrap;html=1;fillColor=#0050ef;fontColor=#ffffff;strokeColor=#001DBC;" vertex="1" parent="--fqdnwhhY8KtqHlQ7Be-12">
          <mxGeometry x="420" y="380" width="240" height="80" as="geometry" />
        </mxCell>
        <mxCell id="--fqdnwhhY8KtqHlQ7Be-24" value="&lt;font style=&quot;font-size: 16px;&quot;&gt;master_biop_map.csv&lt;/font&gt;&lt;br style=&quot;border-color: var(--border-color);&quot;&gt;(anonymization map for biopsies)" style="rounded=1;whiteSpace=wrap;html=1;fillColor=#0050ef;fontColor=#ffffff;strokeColor=#001DBC;" vertex="1" parent="--fqdnwhhY8KtqHlQ7Be-12">
          <mxGeometry x="420" y="500" width="240" height="80" as="geometry" />
        </mxCell>
        <mxCell id="--fqdnwhhY8KtqHlQ7Be-30" value="&lt;i&gt;&lt;font style=&quot;&quot;&gt;&lt;span style=&quot;font-size: 16px;&quot;&gt;UNZIPPED_DICOMS&lt;/span&gt;&lt;br&gt;&lt;font style=&quot;font-size: 12px;&quot;&gt;(anonymized)&lt;/font&gt;&lt;br&gt;&lt;/font&gt;&lt;/i&gt;" style="rounded=1;whiteSpace=wrap;html=1;fillColor=#6a00ff;fontColor=#ffffff;strokeColor=#3700CC;" vertex="1" parent="--fqdnwhhY8KtqHlQ7Be-12">
          <mxGeometry x="740" y="620" width="240" height="80" as="geometry" />
        </mxCell>
        <mxCell id="--fqdnwhhY8KtqHlQ7Be-29" style="edgeStyle=orthogonalEdgeStyle;rounded=0;orthogonalLoop=1;jettySize=auto;html=1;entryX=0.5;entryY=0;entryDx=0;entryDy=0;strokeWidth=4;fillColor=#fad9d5;strokeColor=#ae4132;" edge="1" parent="--fqdnwhhY8KtqHlQ7Be-12" source="--fqdnwhhY8KtqHlQ7Be-14" target="--fqdnwhhY8KtqHlQ7Be-30">
          <mxGeometry relative="1" as="geometry">
            <mxPoint x="830" y="840" as="targetPoint" />
          </mxGeometry>
        </mxCell>
        <mxCell id="--fqdnwhhY8KtqHlQ7Be-11" value="&lt;font style=&quot;border-color: var(--border-color); font-size: 16px;&quot;&gt;&lt;i&gt;ANON_FILE&lt;/i&gt;&lt;/font&gt;&lt;br style=&quot;border-color: var(--border-color);&quot;&gt;(anonymized data rows)" style="rounded=1;whiteSpace=wrap;html=1;fillColor=#0050ef;fontColor=#ffffff;strokeColor=#001DBC;" vertex="1" parent="--fqdnwhhY8KtqHlQ7Be-12">
          <mxGeometry x="420" y="620" width="240" height="80" as="geometry" />
        </mxCell>
        <mxCell id="--fqdnwhhY8KtqHlQ7Be-21" style="edgeStyle=orthogonalEdgeStyle;rounded=0;orthogonalLoop=1;jettySize=auto;html=1;entryX=0;entryY=0.5;entryDx=0;entryDy=0;strokeWidth=4;fillColor=#fad9d5;strokeColor=#ae4132;" edge="1" parent="--fqdnwhhY8KtqHlQ7Be-12" source="--fqdnwhhY8KtqHlQ7Be-8" target="--fqdnwhhY8KtqHlQ7Be-11">
          <mxGeometry relative="1" as="geometry" />
        </mxCell>
        <mxCell id="--fqdnwhhY8KtqHlQ7Be-31" value="" style="swimlane;startSize=0;fillColor=#b1ddf0;strokeWidth=4;strokeColor=#10739e;" vertex="1" parent="--fqdnwhhY8KtqHlQ7Be-12">
          <mxGeometry y="740" width="1110" height="1370" as="geometry" />
        </mxCell>
        <mxCell id="--fqdnwhhY8KtqHlQ7Be-33" style="edgeStyle=orthogonalEdgeStyle;rounded=0;orthogonalLoop=1;jettySize=auto;html=1;entryX=0;entryY=0.5;entryDx=0;entryDy=0;strokeWidth=4;" edge="1" parent="--fqdnwhhY8KtqHlQ7Be-31">
          <mxGeometry relative="1" as="geometry">
            <mxPoint x="380.0000000000009" y="230" as="sourcePoint" />
          </mxGeometry>
        </mxCell>
        <mxCell id="--fqdnwhhY8KtqHlQ7Be-34" style="edgeStyle=orthogonalEdgeStyle;rounded=0;orthogonalLoop=1;jettySize=auto;html=1;entryX=0;entryY=0.5;entryDx=0;entryDy=0;strokeWidth=4;" edge="1" parent="--fqdnwhhY8KtqHlQ7Be-31">
          <mxGeometry relative="1" as="geometry">
            <mxPoint x="380.0000000000009" y="230" as="sourcePoint" />
          </mxGeometry>
        </mxCell>
        <mxCell id="--fqdnwhhY8KtqHlQ7Be-35" style="edgeStyle=orthogonalEdgeStyle;rounded=0;orthogonalLoop=1;jettySize=auto;html=1;entryX=0;entryY=0.5;entryDx=0;entryDy=0;strokeWidth=4;" edge="1" parent="--fqdnwhhY8KtqHlQ7Be-31">
          <mxGeometry relative="1" as="geometry">
            <mxPoint x="380.0000000000009" y="230" as="sourcePoint" />
          </mxGeometry>
        </mxCell>
        <mxCell id="--fqdnwhhY8KtqHlQ7Be-36" style="edgeStyle=orthogonalEdgeStyle;rounded=0;orthogonalLoop=1;jettySize=auto;html=1;entryX=0;entryY=0.5;entryDx=0;entryDy=0;strokeWidth=4;" edge="1" parent="--fqdnwhhY8KtqHlQ7Be-31">
          <mxGeometry relative="1" as="geometry">
            <mxPoint x="380.0000000000009" y="230" as="sourcePoint" />
          </mxGeometry>
        </mxCell>
        <mxCell id="--fqdnwhhY8KtqHlQ7Be-38" style="edgeStyle=orthogonalEdgeStyle;rounded=0;orthogonalLoop=1;jettySize=auto;html=1;entryX=0.5;entryY=1;entryDx=0;entryDy=0;exitX=1;exitY=0.5;exitDx=0;exitDy=0;strokeWidth=4;" edge="1" parent="--fqdnwhhY8KtqHlQ7Be-31">
          <mxGeometry relative="1" as="geometry">
            <mxPoint x="735" y="170" as="targetPoint" />
          </mxGeometry>
        </mxCell>
        <mxCell id="--fqdnwhhY8KtqHlQ7Be-59" value="&lt;font style=&quot;font-size: 28px;&quot;&gt;&lt;b&gt;CADBUSI-Database&lt;br&gt;&lt;/b&gt;&lt;/font&gt;" style="text;html=1;align=center;verticalAlign=middle;resizable=0;points=[];autosize=1;strokeColor=none;fillColor=none;" vertex="1" parent="--fqdnwhhY8KtqHlQ7Be-31">
          <mxGeometry x="20" y="20" width="280" height="50" as="geometry" />
        </mxCell>
        <mxCell id="--fqdnwhhY8KtqHlQ7Be-347" style="edgeStyle=orthogonalEdgeStyle;rounded=0;orthogonalLoop=1;jettySize=auto;html=1;entryX=1;entryY=0;entryDx=0;entryDy=72.5;entryPerimeter=0;strokeWidth=4;fillColor=#fad9d5;strokeColor=#ae4132;" edge="1" parent="--fqdnwhhY8KtqHlQ7Be-31" source="--fqdnwhhY8KtqHlQ7Be-340" target="--fqdnwhhY8KtqHlQ7Be-346">
          <mxGeometry relative="1" as="geometry" />
        </mxCell>
        <mxCell id="--fqdnwhhY8KtqHlQ7Be-340" value="&lt;font style=&quot;font-size: 16px;&quot;&gt;&lt;i&gt;DEVELOP_DATABASE&lt;/i&gt;&lt;/font&gt;" style="shape=step;perimeter=stepPerimeter;whiteSpace=wrap;html=1;fixedSize=1;direction=south;fillColor=#fad9d5;strokeColor=#ae4132;" vertex="1" parent="--fqdnwhhY8KtqHlQ7Be-31">
          <mxGeometry x="540" y="80" width="240" height="120" as="geometry" />
        </mxCell>
        <mxCell id="--fqdnwhhY8KtqHlQ7Be-355" style="edgeStyle=orthogonalEdgeStyle;rounded=0;orthogonalLoop=1;jettySize=auto;html=1;strokeWidth=4;" edge="1" parent="--fqdnwhhY8KtqHlQ7Be-31" source="--fqdnwhhY8KtqHlQ7Be-346">
          <mxGeometry relative="1" as="geometry">
            <mxPoint x="560" y="260" as="targetPoint" />
          </mxGeometry>
        </mxCell>
        <mxCell id="--fqdnwhhY8KtqHlQ7Be-360" style="edgeStyle=orthogonalEdgeStyle;rounded=0;orthogonalLoop=1;jettySize=auto;html=1;entryX=0.25;entryY=1;entryDx=0;entryDy=0;strokeWidth=4;" edge="1" parent="--fqdnwhhY8KtqHlQ7Be-31" source="--fqdnwhhY8KtqHlQ7Be-346" target="--fqdnwhhY8KtqHlQ7Be-342">
          <mxGeometry relative="1" as="geometry">
            <Array as="points">
              <mxPoint x="460" y="330" />
              <mxPoint x="460" y="395" />
            </Array>
          </mxGeometry>
        </mxCell>
        <mxCell id="--fqdnwhhY8KtqHlQ7Be-363" style="edgeStyle=orthogonalEdgeStyle;rounded=0;orthogonalLoop=1;jettySize=auto;html=1;exitX=1.006;exitY=0.852;exitDx=0;exitDy=0;exitPerimeter=0;entryX=0.5;entryY=1;entryDx=0;entryDy=0;strokeWidth=4;" edge="1" parent="--fqdnwhhY8KtqHlQ7Be-31" source="--fqdnwhhY8KtqHlQ7Be-346" target="--fqdnwhhY8KtqHlQ7Be-343">
          <mxGeometry relative="1" as="geometry">
            <Array as="points">
              <mxPoint x="360" y="351" />
              <mxPoint x="360" y="350" />
              <mxPoint x="410" y="350" />
              <mxPoint x="410" y="570" />
            </Array>
          </mxGeometry>
        </mxCell>
        <mxCell id="--fqdnwhhY8KtqHlQ7Be-346" value="&lt;font style=&quot;font-size: 16px;&quot;&gt;&lt;i&gt;DATABASE_DIR&lt;/i&gt;&lt;/font&gt;" style="shape=cylinder3;whiteSpace=wrap;html=1;boundedLbl=1;backgroundOutline=1;size=15;fillColor=#d80073;fontColor=#ffffff;strokeColor=#A50040;" vertex="1" parent="--fqdnwhhY8KtqHlQ7Be-31">
          <mxGeometry x="150" y="130" width="190" height="260" as="geometry" />
        </mxCell>
        <mxCell id="--fqdnwhhY8KtqHlQ7Be-356" style="edgeStyle=orthogonalEdgeStyle;rounded=0;orthogonalLoop=1;jettySize=auto;html=1;exitX=0.5;exitY=1;exitDx=0;exitDy=0;entryX=1.001;entryY=0.577;entryDx=0;entryDy=0;entryPerimeter=0;strokeWidth=4;fillColor=#fad9d5;strokeColor=#ae4132;" edge="1" parent="--fqdnwhhY8KtqHlQ7Be-31" source="--fqdnwhhY8KtqHlQ7Be-341" target="--fqdnwhhY8KtqHlQ7Be-346">
          <mxGeometry relative="1" as="geometry" />
        </mxCell>
        <mxCell id="--fqdnwhhY8KtqHlQ7Be-341" value="&lt;font style=&quot;font-size: 16px;&quot;&gt;&lt;i&gt;DEVELOP_LABELBOX_DATA&lt;/i&gt;&lt;/font&gt;" style="shape=step;perimeter=stepPerimeter;whiteSpace=wrap;html=1;fixedSize=1;direction=south;fillColor=#fad9d5;strokeColor=#ae4132;" vertex="1" parent="--fqdnwhhY8KtqHlQ7Be-31">
          <mxGeometry x="540" y="220" width="240" height="120" as="geometry" />
        </mxCell>
        <mxCell id="--fqdnwhhY8KtqHlQ7Be-364" style="edgeStyle=orthogonalEdgeStyle;rounded=0;orthogonalLoop=1;jettySize=auto;html=1;strokeWidth=4;" edge="1" parent="--fqdnwhhY8KtqHlQ7Be-31" source="--fqdnwhhY8KtqHlQ7Be-353" target="--fqdnwhhY8KtqHlQ7Be-343">
          <mxGeometry relative="1" as="geometry" />
        </mxCell>
        <mxCell id="--fqdnwhhY8KtqHlQ7Be-353" value="&lt;i&gt;&lt;font style=&quot;font-size: 16px;&quot;&gt;LABELBOX_LABELS&lt;/font&gt;&lt;/i&gt;" style="shape=cylinder3;whiteSpace=wrap;html=1;boundedLbl=1;backgroundOutline=1;size=15;fillColor=#d80073;fontColor=#ffffff;strokeColor=#A50040;" vertex="1" parent="--fqdnwhhY8KtqHlQ7Be-31">
          <mxGeometry x="150" y="440" width="190" height="260" as="geometry" />
        </mxCell>
        <mxCell id="--fqdnwhhY8KtqHlQ7Be-359" style="edgeStyle=orthogonalEdgeStyle;rounded=0;orthogonalLoop=1;jettySize=auto;html=1;fillColor=#fad9d5;strokeColor=#ae4132;strokeWidth=4;" edge="1" parent="--fqdnwhhY8KtqHlQ7Be-31" source="--fqdnwhhY8KtqHlQ7Be-342" target="--fqdnwhhY8KtqHlQ7Be-353">
          <mxGeometry relative="1" as="geometry">
            <Array as="points">
              <mxPoint x="460" y="425" />
              <mxPoint x="460" y="490" />
            </Array>
          </mxGeometry>
        </mxCell>
        <mxCell id="--fqdnwhhY8KtqHlQ7Be-342" value="&lt;font style=&quot;font-size: 16px;&quot;&gt;&lt;i&gt;RETREIVE_LABELBOX_DATA&lt;/i&gt;&lt;/font&gt;" style="shape=step;perimeter=stepPerimeter;whiteSpace=wrap;html=1;fixedSize=1;direction=south;fillColor=#fad9d5;strokeColor=#ae4132;" vertex="1" parent="--fqdnwhhY8KtqHlQ7Be-31">
          <mxGeometry x="540" y="365" width="240" height="120" as="geometry" />
        </mxCell>
        <mxCell id="--fqdnwhhY8KtqHlQ7Be-358" style="edgeStyle=orthogonalEdgeStyle;rounded=0;orthogonalLoop=1;jettySize=auto;html=1;entryX=0.5;entryY=0;entryDx=0;entryDy=0;exitX=0;exitY=0.5;exitDx=0;exitDy=0;strokeWidth=4;" edge="1" parent="--fqdnwhhY8KtqHlQ7Be-31" source="--fqdnwhhY8KtqHlQ7Be-362" target="--fqdnwhhY8KtqHlQ7Be-342">
          <mxGeometry relative="1" as="geometry">
            <mxPoint x="850.0000188310632" y="450.0476190476188" as="sourcePoint" />
          </mxGeometry>
        </mxCell>
        <mxCell id="--fqdnwhhY8KtqHlQ7Be-45" value="" style="swimlane;startSize=0;fillColor=#b1ddf0;strokeWidth=4;strokeColor=#10739e;" vertex="1" parent="--fqdnwhhY8KtqHlQ7Be-31">
          <mxGeometry y="860" width="1110" height="510" as="geometry" />
        </mxCell>
        <mxCell id="--fqdnwhhY8KtqHlQ7Be-46" value="&lt;font style=&quot;font-size: 28px;&quot;&gt;&lt;b&gt;CADBUSI-Training&lt;/b&gt;&lt;/font&gt;" style="text;html=1;align=center;verticalAlign=middle;resizable=0;points=[];autosize=1;strokeColor=none;fillColor=none;" vertex="1" parent="--fqdnwhhY8KtqHlQ7Be-45">
          <mxGeometry x="20" y="10" width="270" height="50" as="geometry" />
        </mxCell>
        <mxCell id="--fqdnwhhY8KtqHlQ7Be-47" style="edgeStyle=orthogonalEdgeStyle;rounded=0;orthogonalLoop=1;jettySize=auto;html=1;entryX=0;entryY=0.5;entryDx=0;entryDy=0;strokeWidth=4;" edge="1" parent="--fqdnwhhY8KtqHlQ7Be-45">
          <mxGeometry relative="1" as="geometry">
            <mxPoint x="380.0000000000009" y="230" as="sourcePoint" />
          </mxGeometry>
        </mxCell>
        <mxCell id="--fqdnwhhY8KtqHlQ7Be-48" style="edgeStyle=orthogonalEdgeStyle;rounded=0;orthogonalLoop=1;jettySize=auto;html=1;entryX=0;entryY=0.5;entryDx=0;entryDy=0;strokeWidth=4;" edge="1" parent="--fqdnwhhY8KtqHlQ7Be-45">
          <mxGeometry relative="1" as="geometry">
            <mxPoint x="380.0000000000009" y="230" as="sourcePoint" />
          </mxGeometry>
        </mxCell>
        <mxCell id="--fqdnwhhY8KtqHlQ7Be-49" style="edgeStyle=orthogonalEdgeStyle;rounded=0;orthogonalLoop=1;jettySize=auto;html=1;entryX=0;entryY=0.5;entryDx=0;entryDy=0;strokeWidth=4;" edge="1" parent="--fqdnwhhY8KtqHlQ7Be-45">
          <mxGeometry relative="1" as="geometry">
            <mxPoint x="380.0000000000009" y="230" as="sourcePoint" />
          </mxGeometry>
        </mxCell>
        <mxCell id="--fqdnwhhY8KtqHlQ7Be-50" style="edgeStyle=orthogonalEdgeStyle;rounded=0;orthogonalLoop=1;jettySize=auto;html=1;entryX=0;entryY=0.5;entryDx=0;entryDy=0;strokeWidth=4;" edge="1" parent="--fqdnwhhY8KtqHlQ7Be-45">
          <mxGeometry relative="1" as="geometry">
            <mxPoint x="380.0000000000009" y="230" as="sourcePoint" />
          </mxGeometry>
        </mxCell>
        <mxCell id="--fqdnwhhY8KtqHlQ7Be-52" style="edgeStyle=orthogonalEdgeStyle;rounded=0;orthogonalLoop=1;jettySize=auto;html=1;entryX=0.5;entryY=1;entryDx=0;entryDy=0;exitX=1;exitY=0.5;exitDx=0;exitDy=0;strokeWidth=4;" edge="1" parent="--fqdnwhhY8KtqHlQ7Be-45">
          <mxGeometry relative="1" as="geometry">
            <mxPoint x="660" y="550" as="sourcePoint" />
          </mxGeometry>
        </mxCell>
        <mxCell id="--fqdnwhhY8KtqHlQ7Be-371" style="edgeStyle=orthogonalEdgeStyle;rounded=0;orthogonalLoop=1;jettySize=auto;html=1;strokeWidth=4;fillColor=#f8cecc;strokeColor=#b85450;" edge="1" parent="--fqdnwhhY8KtqHlQ7Be-45" source="--fqdnwhhY8KtqHlQ7Be-368" target="--fqdnwhhY8KtqHlQ7Be-370">
          <mxGeometry relative="1" as="geometry" />
        </mxCell>
        <mxCell id="--fqdnwhhY8KtqHlQ7Be-368" value="&lt;font style=&quot;font-size: 16px;&quot;&gt;train_(arch).py&lt;br&gt;&lt;/font&gt;" style="shape=step;perimeter=stepPerimeter;whiteSpace=wrap;html=1;fixedSize=1;direction=south;fillColor=#fad9d5;strokeColor=#ae4132;" vertex="1" parent="--fqdnwhhY8KtqHlQ7Be-45">
          <mxGeometry x="540" y="110" width="240" height="120" as="geometry" />
        </mxCell>
        <mxCell id="--fqdnwhhY8KtqHlQ7Be-372" style="edgeStyle=orthogonalEdgeStyle;rounded=0;orthogonalLoop=1;jettySize=auto;html=1;exitX=1;exitY=0.25;exitDx=0;exitDy=0;entryX=0.335;entryY=0.995;entryDx=0;entryDy=0;entryPerimeter=0;strokeWidth=4;" edge="1" parent="--fqdnwhhY8KtqHlQ7Be-45" source="--fqdnwhhY8KtqHlQ7Be-370" target="--fqdnwhhY8KtqHlQ7Be-368">
          <mxGeometry relative="1" as="geometry" />
        </mxCell>
        <mxCell id="--fqdnwhhY8KtqHlQ7Be-374" style="edgeStyle=orthogonalEdgeStyle;rounded=0;orthogonalLoop=1;jettySize=auto;html=1;entryX=0.5;entryY=1;entryDx=0;entryDy=0;exitX=0.5;exitY=1;exitDx=0;exitDy=0;strokeWidth=4;" edge="1" parent="--fqdnwhhY8KtqHlQ7Be-45" source="--fqdnwhhY8KtqHlQ7Be-370" target="--fqdnwhhY8KtqHlQ7Be-373">
          <mxGeometry relative="1" as="geometry">
            <Array as="points">
              <mxPoint x="260" y="350" />
            </Array>
          </mxGeometry>
        </mxCell>
        <mxCell id="--fqdnwhhY8KtqHlQ7Be-370" value="&lt;font style=&quot;font-size: 16px;&quot;&gt;&lt;i&gt;MODELS&lt;/i&gt;&lt;/font&gt;" style="rounded=1;whiteSpace=wrap;html=1;fillColor=#6a00ff;fontColor=#ffffff;strokeColor=#3700CC;" vertex="1" parent="--fqdnwhhY8KtqHlQ7Be-45">
          <mxGeometry x="140" y="130" width="240" height="80" as="geometry" />
        </mxCell>
        <mxCell id="--fqdnwhhY8KtqHlQ7Be-373" value="&lt;font style=&quot;font-size: 16px;&quot;&gt;test_model_results.py&lt;br&gt;&lt;/font&gt;" style="shape=step;perimeter=stepPerimeter;whiteSpace=wrap;html=1;fixedSize=1;direction=south;fillColor=#fad9d5;strokeColor=#ae4132;" vertex="1" parent="--fqdnwhhY8KtqHlQ7Be-45">
          <mxGeometry x="540" y="290" width="240" height="120" as="geometry" />
        </mxCell>
        <mxCell id="--fqdnwhhY8KtqHlQ7Be-351" value="&lt;font style=&quot;font-size: 16px;&quot;&gt;failed_cases.csv&lt;/font&gt;&lt;br style=&quot;border-color: var(--border-color);&quot;&gt;(Worst performing cases)" style="rounded=1;whiteSpace=wrap;html=1;fillColor=#0050ef;fontColor=#ffffff;strokeColor=#001DBC;" vertex="1" parent="--fqdnwhhY8KtqHlQ7Be-45">
          <mxGeometry x="840" y="310" width="240" height="80" as="geometry" />
        </mxCell>
        <mxCell id="--fqdnwhhY8KtqHlQ7Be-375" style="edgeStyle=orthogonalEdgeStyle;rounded=0;orthogonalLoop=1;jettySize=auto;html=1;entryX=0;entryY=0.5;entryDx=0;entryDy=0;fillColor=#f8cecc;strokeColor=#b85450;strokeWidth=4;" edge="1" parent="--fqdnwhhY8KtqHlQ7Be-45" source="--fqdnwhhY8KtqHlQ7Be-373" target="--fqdnwhhY8KtqHlQ7Be-351">
          <mxGeometry relative="1" as="geometry" />
        </mxCell>
        <mxCell id="--fqdnwhhY8KtqHlQ7Be-367" style="edgeStyle=orthogonalEdgeStyle;rounded=0;orthogonalLoop=1;jettySize=auto;html=1;fillColor=#f8cecc;strokeColor=#b85450;strokeWidth=4;" edge="1" parent="--fqdnwhhY8KtqHlQ7Be-31" source="--fqdnwhhY8KtqHlQ7Be-343" target="--fqdnwhhY8KtqHlQ7Be-366">
          <mxGeometry relative="1" as="geometry" />
        </mxCell>
        <mxCell id="--fqdnwhhY8KtqHlQ7Be-343" value="&lt;font style=&quot;font-size: 16px;&quot;&gt;&lt;i&gt;DEVELOP_EXPORT&lt;br&gt;&lt;/i&gt;&lt;/font&gt;" style="shape=step;perimeter=stepPerimeter;whiteSpace=wrap;html=1;fixedSize=1;direction=south;fillColor=#fad9d5;strokeColor=#ae4132;" vertex="1" parent="--fqdnwhhY8KtqHlQ7Be-31">
          <mxGeometry x="540" y="510" width="240" height="120" as="geometry" />
        </mxCell>
        <mxCell id="--fqdnwhhY8KtqHlQ7Be-362" value="&lt;i style=&quot;border-color: var(--border-color); color: rgb(0, 0, 0); font-size: 16px;&quot;&gt;LABELBOX_API_KEY&lt;br style=&quot;border-color: var(--border-color);&quot;&gt;PROJECT_ID&lt;/i&gt;" style="rounded=1;whiteSpace=wrap;html=1;" vertex="1" parent="--fqdnwhhY8KtqHlQ7Be-31">
          <mxGeometry x="830" y="385" width="190" height="80" as="geometry" />
        </mxCell>
        <mxCell id="--fqdnwhhY8KtqHlQ7Be-369" style="edgeStyle=orthogonalEdgeStyle;rounded=0;orthogonalLoop=1;jettySize=auto;html=1;strokeWidth=4;" edge="1" parent="--fqdnwhhY8KtqHlQ7Be-31" source="--fqdnwhhY8KtqHlQ7Be-366" target="--fqdnwhhY8KtqHlQ7Be-368">
          <mxGeometry relative="1" as="geometry" />
        </mxCell>
        <mxCell id="--fqdnwhhY8KtqHlQ7Be-366" value="&lt;i&gt;&lt;font style=&quot;font-size: 16px;&quot;&gt;EXPORT_DIR&lt;/font&gt;&lt;/i&gt;" style="rounded=1;whiteSpace=wrap;html=1;fillColor=#6a00ff;fontColor=#ffffff;strokeColor=#3700CC;" vertex="1" parent="--fqdnwhhY8KtqHlQ7Be-31">
          <mxGeometry x="540" y="730" width="240" height="80" as="geometry" />
        </mxCell>
        <mxCell id="--fqdnwhhY8KtqHlQ7Be-352" style="edgeStyle=orthogonalEdgeStyle;rounded=0;orthogonalLoop=1;jettySize=auto;html=1;entryX=0.5;entryY=0;entryDx=0;entryDy=0;strokeWidth=4;exitX=0.5;exitY=0;exitDx=0;exitDy=0;" edge="1" parent="--fqdnwhhY8KtqHlQ7Be-31" source="--fqdnwhhY8KtqHlQ7Be-351" target="--fqdnwhhY8KtqHlQ7Be-341">
          <mxGeometry relative="1" as="geometry">
            <mxPoint x="1062" y="1170" as="sourcePoint" />
            <Array as="points">
              <mxPoint x="960" y="660" />
              <mxPoint x="1062" y="660" />
              <mxPoint x="1062" y="280" />
            </Array>
          </mxGeometry>
        </mxCell>
        <mxCell id="--fqdnwhhY8KtqHlQ7Be-349" style="edgeStyle=orthogonalEdgeStyle;rounded=0;orthogonalLoop=1;jettySize=auto;html=1;strokeWidth=4;entryX=0;entryY=0.5;entryDx=0;entryDy=0;" edge="1" parent="--fqdnwhhY8KtqHlQ7Be-12" source="--fqdnwhhY8KtqHlQ7Be-11" target="--fqdnwhhY8KtqHlQ7Be-340">
          <mxGeometry relative="1" as="geometry">
            <Array as="points">
              <mxPoint x="540" y="780" />
              <mxPoint x="660" y="780" />
            </Array>
          </mxGeometry>
        </mxCell>
        <mxCell id="--fqdnwhhY8KtqHlQ7Be-350" style="edgeStyle=orthogonalEdgeStyle;rounded=0;orthogonalLoop=1;jettySize=auto;html=1;entryX=0;entryY=0.5;entryDx=0;entryDy=0;strokeWidth=4;exitX=0.5;exitY=1;exitDx=0;exitDy=0;" edge="1" parent="--fqdnwhhY8KtqHlQ7Be-12" source="--fqdnwhhY8KtqHlQ7Be-30" target="--fqdnwhhY8KtqHlQ7Be-340">
          <mxGeometry relative="1" as="geometry">
            <Array as="points">
              <mxPoint x="860" y="780" />
              <mxPoint x="660" y="780" />
            </Array>
          </mxGeometry>
        </mxCell>
        <mxCell id="--fqdnwhhY8KtqHlQ7Be-28" style="edgeStyle=orthogonalEdgeStyle;rounded=0;orthogonalLoop=1;jettySize=auto;html=1;strokeWidth=5;" edge="1" parent="1" source="--fqdnwhhY8KtqHlQ7Be-1" target="--fqdnwhhY8KtqHlQ7Be-8">
          <mxGeometry relative="1" as="geometry" />
        </mxCell>
        <mxCell id="--fqdnwhhY8KtqHlQ7Be-1" value="&lt;font style=&quot;font-size: 16px;&quot;&gt;data_complete.csv&lt;/font&gt;&lt;br&gt;(Raw un-anonymized data rows)" style="rounded=1;whiteSpace=wrap;html=1;fillColor=#0050ef;fontColor=#ffffff;strokeColor=#001DBC;" vertex="1" parent="1">
          <mxGeometry x="2840" y="70" width="240" height="80" as="geometry" />
        </mxCell>
        <mxCell id="--fqdnwhhY8KtqHlQ7Be-19" style="edgeStyle=orthogonalEdgeStyle;rounded=0;orthogonalLoop=1;jettySize=auto;html=1;entryX=0;entryY=0.5;entryDx=0;entryDy=0;strokeWidth=4;" edge="1" parent="1" source="--fqdnwhhY8KtqHlQ7Be-15" target="--fqdnwhhY8KtqHlQ7Be-14">
          <mxGeometry relative="1" as="geometry" />
        </mxCell>
        <mxCell id="--fqdnwhhY8KtqHlQ7Be-15" value="&lt;font style=&quot;font-size: 16px;&quot;&gt;&lt;i&gt;ZIPPED_DICOMS&lt;/i&gt;&lt;/font&gt;" style="rounded=1;whiteSpace=wrap;html=1;fillColor=#6a00ff;fontColor=#ffffff;strokeColor=#3700CC;" vertex="1" parent="1">
          <mxGeometry x="3360" y="70" width="240" height="80" as="geometry" />
        </mxCell>
      </root>
    </mxGraphModel>
  </diagram>
</mxfile>
